<?xml version="1.0" encoding="utf-8"?>
<!-- Generator: Adobe Illustrator 23.0.1, SVG Export Plug-In . SVG Version: 6.00 Build 0)  -->
<svg version="1.1" id="Money" xmlns="http://www.w3.org/2000/svg" xmlns:xlink="http://www.w3.org/1999/xlink" x="0px" y="0px"
	 viewBox="0 0 32 30" style="enable-background:new 0 0 32 30;" xml:space="preserve">
<style type="text/css">
	.st0{fill:#85BF57;}
	.st1{opacity:0.15;fill:#010101;}
	.st2{fill:#FFFFFF;}
</style>
<path id="Colour" class="st0" d="M32,28c0,1.1-0.9,2-2,2H2c-1.1,0-2-0.9-2-2V2c0-1.1,0.9-2,2-2h28c1.1,0,2,0.9,2,2V28z"/>
<path id="Money_x5F_Lines" class="st1" d="M30,19H2c-1.1,0-2-0.9-2-2v11c0,1.1,0.9,2,2,2h28c1.1,0,2-0.9,2-2V17
	C32,18.1,31.1,19,30,19z"/>
<ellipse id="Circle" class="st2" cx="16" cy="9.5" rx="8" ry="5.5"/>
<path id="Money_x5F_Design" class="st1" d="M30,4c-1.1,0-2-0.9-2-2V1H4v1c0,1.1-0.9,2-2,2H1v11h1c1.1,0,2,0.9,2,2v1h24v-1
	c0-1.1,0.9-2,2-2h1V4H30z M30,14c-1.66,0-3,1.34-3,3H5c0-1.66-1.34-3-3-3V5c1.66,0,3-1.34,3-3h22c0,1.66,1.34,3,3,3V14z"/>
<path id="Dollar_x5F_Sign" class="st0" d="M16.5,9h-1C15.22,9,15,8.78,15,8.5S15.22,8,15.5,8h2C17.78,8,18,7.78,18,7.5
	S17.78,7,17.5,7h-2C14.67,7,14,7.67,14,8.5s0.67,1.5,1.5,1.5h1c0.28,0,0.5,0.22,0.5,0.5S16.78,11,16.5,11h-2
	c-0.28,0-0.5,0.22-0.5,0.5s0.22,0.5,0.5,0.5h2c0.83,0,1.5-0.67,1.5-1.5S17.33,9,16.5,9z"/>
</svg>
